<svg id="Warstwa_1" data-name="Warstwa 1" xmlns="http://www.w3.org/2000/svg" xmlns:xlink="http://www.w3.org/1999/xlink" viewBox="0 0 316.12 130.5"><defs><style>.cls-1{fill:#143b58;}.cls-2{fill:url(#Gradient_bez_nazwy_2);}</style><linearGradient id="Gradient_bez_nazwy_2" x1="-88.59" y1="635.67" x2="-88.81" y2="635.39" gradientTransform="matrix(134, 0, 0, -174.06, 12134.15, 110653.54)" gradientUnits="userSpaceOnUse"><stop offset="0" stop-color="#e1d5b8"/><stop offset="1" stop-color="#bfac83"/></linearGradient></defs><title>Obligain</title><path class="cls-1" d="M22.24,72.85c0-12.64,9.36-21.6,22.08-21.6s22,9,22,21.6S57,94.53,44.32,94.53,22.24,85.49,22.24,72.85Zm36.32,0c0-9-6.08-14.88-14.24-14.88S30,63.81,30,72.85s6.16,15,14.32,15S58.56,81.89,58.56,72.85Z"/><path class="cls-1" d="M114.48,72.85c0,13-9,21.68-21.44,21.68-6.24,0-11.68-2.4-15.12-7.2v6.72H70.56V34.69h7.68V58.05c3.52-4.56,8.8-6.8,14.8-6.8C105.44,51.25,114.48,59.89,114.48,72.85Zm-7.76,0c0-9-6.16-14.88-14.32-14.88S78.16,63.81,78.16,72.85s6.16,15,14.24,15S106.72,81.89,106.72,72.85Z"/><path class="cls-1" d="M118.72,34.69h7.68V94.05h-7.68Z"/><path class="cls-1" d="M133.28,38.53a5.06,5.06,0,0,1,5.2-5,5,5,0,1,1-5.2,5Zm1.36,13.12h7.68v42.4h-7.68Z"/><path class="cls-1" d="M191.12,51.65V88.29c0,15-7.6,21.76-22,21.76-7.76,0-15.6-2.16-20.24-6.32l3.68-5.92c3.92,3.36,10.08,5.52,16.32,5.52,10,0,14.56-4.64,14.56-14.24V85.73c-3.68,4.4-9.2,6.56-15.28,6.56-12.24,0-21.52-8.32-21.52-20.56s9.28-20.48,21.52-20.48c6.32,0,12.08,2.32,15.68,7V51.65ZM183.6,71.73C183.6,63.49,177.52,58,169,58S154.4,63.49,154.4,71.73,160.48,85.57,169,85.57,183.6,79.89,183.6,71.73Z"/><path class="cls-1" d="M233,68.45v25.6h-7.28v-5.6c-2.56,3.84-7.28,6.08-13.92,6.08-9.61,0-15.69-5.12-15.69-12.48,0-6.8,4.41-12.4,17.05-12.4h12.16V68.13c0-6.48-3.76-10.24-11.36-10.24a21.42,21.42,0,0,0-13.44,4.56l-3.21-5.76c4.4-3.52,10.73-5.44,17.53-5.44C226.4,51.25,233,56.85,233,68.45Zm-7.68,12.64V75.17H213.44c-7.61,0-9.77,3-9.77,6.56,0,4.24,3.52,6.88,9.37,6.88S223.36,86,225.28,81.09Z"/><path class="cls-1" d="M296.16,69.65v24.4h-7.68V70.53c0-8.32-4.17-12.4-11.44-12.4-8.17,0-13.44,4.88-13.44,14.08V94.05h-7.69V51.65h7.36v6.4c3.12-4.32,8.57-6.8,15.29-6.8C288.88,51.25,296.16,57.17,296.16,69.65Z"/><path id="Shape" class="cls-2" d="M248.36,94.05h-7.3V51.93a24.62,24.62,0,0,1-9.94-2.06,24.91,24.91,0,0,1-4.34-2.42,25.7,25.7,0,0,1-3.78-3.2,26.55,26.55,0,0,1-7.49-18.56h7.3a24.88,24.88,0,0,1,9.95,2.07,25.92,25.92,0,0,1,4.34,2.41,26.26,26.26,0,0,1,6.9,7.09,26.71,26.71,0,0,1,4.36,14.67V94.05ZM251,44.29h0a30.9,30.9,0,0,0-2.64-6.76,30.34,30.34,0,0,0-4.09-5.84,26.1,26.1,0,0,1,9.19-9.76,24.88,24.88,0,0,1,13.13-3.73h7.3a27,27,0,0,1-1.77,9.61,26.3,26.3,0,0,1-4.86,8A25.23,25.23,0,0,1,251,44.29Z"/></svg>