<?xml version="1.0" encoding="UTF-8"?>
<svg width="275px" height="93px" viewBox="0 0 275 93" version="1.1" xmlns="http://www.w3.org/2000/svg" xmlns:xlink="http://www.w3.org/1999/xlink">
    <!-- Generator: Sketch 47.1 (45422) - http://www.bohemiancoding.com/sketch -->
    <title>Obligain</title>
    <desc>Created with Sketch.</desc>
    <defs>
        <linearGradient x1="81.5005493%" y1="-12.3667551%" x2="31.0039004%" y2="51.8874186%" id="linearGradient-1">
            <stop stop-color="#E1D5B8" offset="0%"></stop>
            <stop stop-color="#BFAC83" offset="100%"></stop>
        </linearGradient>
    </defs>
    <g id="Welcome" stroke="none" stroke-width="1" fill="none" fill-rule="evenodd">
        <g id="Desktop-HD" transform="translate(-851.000000, -56.000000)" fill-rule="nonzero">
            <g id="Obligain" transform="translate(851.000000, 56.000000)">
                <path d="M0.24,54.85 C0.24,42.21 9.6,33.25 22.32,33.25 C35.04,33.25 44.32,42.25 44.32,54.85 C44.32,67.45 35,76.53 22.32,76.53 C9.64,76.53 0.24,67.49 0.24,54.85 Z M36.56,54.85 C36.56,45.85 30.48,39.97 22.32,39.97 C14.16,39.97 8,45.81 8,54.85 C8,63.89 14.16,69.85 22.32,69.85 C30.48,69.85 36.56,63.89 36.56,54.85 Z" id="Shape" fill="#FFFFFF"></path>
                <path d="M92.48,54.85 C92.48,67.85 83.48,76.53 71.04,76.53 C64.8,76.53 59.36,74.13 55.92,69.33 L55.92,76.05 L48.56,76.05 L48.56,16.69 L56.24,16.69 L56.24,40.05 C59.76,35.49 65.04,33.25 71.04,33.25 C83.44,33.25 92.48,41.89 92.48,54.85 Z M84.72,54.85 C84.72,45.85 78.56,39.97 70.4,39.97 C62.24,39.97 56.16,45.81 56.16,54.85 C56.16,63.89 62.32,69.85 70.4,69.85 C78.48,69.85 84.72,63.89 84.72,54.85 Z" id="Shape" fill="#FFFFFF"></path>
                <polygon id="Shape" fill="#FFFFFF" points="96.72 16.69 104.4 16.69 104.4 76.05 96.72 76.05"></polygon>
                <path d="M111.28,20.53 C111.29556,19.1738293 111.8549,17.8806739 112.832537,16.9406383 C113.810174,16.0006027 115.124262,15.4923858 116.48,15.53 C119.212709,15.6393968 121.350468,17.9240746 121.278255,20.6580191 C121.206042,23.3919635 118.950657,25.5606037 116.215983,25.5255885 C113.481309,25.4905734 111.282189,23.2648971 111.28,20.53 L111.28,20.53 Z M112.64,33.65 L120.32,33.65 L120.32,76.05 L112.64,76.05 L112.64,33.65 Z" id="Shape" fill="#FFFFFF"></path>
                <path d="M169.12,33.65 L169.12,70.29 C169.12,85.29 161.52,92.05 147.12,92.05 C139.36,92.05 131.52,89.89 126.88,85.73 L130.56,79.81 C134.48,83.17 140.64,85.33 146.88,85.33 C156.88,85.33 161.44,80.69 161.44,71.09 L161.44,67.73 C157.76,72.13 152.24,74.29 146.16,74.29 C133.92,74.29 124.64,65.97 124.64,53.73 C124.64,41.49 133.92,33.25 146.16,33.25 C152.48,33.25 158.24,35.57 161.84,40.25 L161.84,33.65 L169.12,33.65 Z M161.6,53.73 C161.6,45.49 155.52,40 147,40 C138.48,40 132.4,45.49 132.4,53.73 C132.4,61.97 138.48,67.57 147,67.57 C155.52,67.57 161.6,61.89 161.6,53.73 Z" id="Shape" fill="#FFFFFF"></path>
                <path d="M211,50.45 L211,76.05 L203.72,76.05 L203.72,70.45 C201.16,74.29 196.44,76.53 189.8,76.53 C180.19,76.53 174.11,71.41 174.11,64.05 C174.11,57.25 178.52,51.65 191.16,51.65 L203.32,51.65 L203.32,50.13 C203.32,43.65 199.56,39.89 191.96,39.89 C187.091977,39.8385266 182.351635,41.4468572 178.52,44.45 L175.31,38.69 C179.71,35.17 186.04,33.25 192.84,33.25 C204.4,33.25 211,38.85 211,50.45 Z M203.32,63.09 L203.32,57.17 L191.44,57.17 C183.83,57.17 181.67,60.17 181.67,63.73 C181.67,67.97 185.19,70.61 191.04,70.61 C196.89,70.61 201.36,68 203.28,63.09 L203.32,63.09 Z" id="Shape" fill="#FFFFFF"></path>
                <path d="M274.16,51.65 L274.16,76.05 L266.48,76.05 L266.48,52.53 C266.48,44.21 262.31,40.13 255.04,40.13 C246.87,40.13 241.6,45.01 241.6,54.21 L241.6,76.05 L233.91,76.05 L233.91,33.65 L241.27,33.65 L241.27,40.05 C244.39,35.73 249.84,33.25 256.56,33.25 C266.88,33.25 274.16,39.17 274.16,51.65 Z" id="Shape" fill="#FFFFFF"></path>
                <path d="M226.36,76.05 L219.06,76.05 L219.06,33.93 C215.639542,33.9412749 212.254261,33.2396976 209.12,31.87 C207.59629,31.2100025 206.142392,30.3993033 204.78,29.45 C203.41992,28.5075103 202.154044,27.435869 201,26.25 C196.177778,21.2772814 193.489924,14.6168571 193.51,7.69 L200.81,7.69 C204.233765,7.6880346 207.62109,8.39273432 210.76,9.76 C212.28044,10.4226301 213.73377,11.2296637 215.1,12.17 C217.828435,14.0748171 220.169982,16.4808419 222,19.26 C224.853139,23.6200452 226.368694,28.7194032 226.36,33.93 L226.36,76.05 L226.36,76.05 Z M229,26.29 L229,26.29 C228.388584,23.9407913 227.502474,21.6718132 226.36,19.53 C225.230929,17.4293533 223.858119,15.4691555 222.27,13.69 C224.431332,9.69202726 227.59916,6.32771814 231.46,3.93 C235.403361,1.48695129 239.95119,0.194993694 244.59,0.2 L251.89,0.2 C251.889399,3.4843244 251.289577,6.74098131 250.12,9.81 C248.991403,12.7458227 247.345337,15.4553964 245.26,17.81 C241.095506,22.5760975 235.291786,25.6028837 229,26.29 Z" id="Shape" fill="url(#linearGradient-1)"></path>
            </g>
        </g>
    </g>
</svg>